<?xml version="1.0" standalone="no"?>
<!DOCTYPE svg PUBLIC "-//W3C//DTD SVG 20010904//EN"
 "http://www.w3.org/TR/2001/REC-SVG-20010904/DTD/svg10.dtd">
<svg version="1.0" xmlns="http://www.w3.org/2000/svg"
 width="300.000000pt" height="300.000000pt" viewBox="0 0 300.000000 300.000000"
 preserveAspectRatio="xMidYMid meet">
<metadata>
Created by potrace 1.14, written by Peter Selinger 2001-2017
</metadata>
<g transform="translate(0.000000,300.000000) scale(0.100000,-0.100000)"
fill="#000000" stroke="none">
<path d="M1395 2814 c-38 -8 -113 -36 -165 -61 -79 -38 -109 -60 -176 -127
-68 -67 -89 -97 -127 -176 -61 -127 -71 -180 -64 -332 5 -134 20 -190 79 -300
37 -69 125 -170 188 -213 l40 -28 0 -117 0 -117 -44 -77 c-24 -42 -57 -116
-72 -164 -52 -156 -33 -288 62 -457 47 -82 61 -98 78 -92 38 15 126 195 151
309 15 70 15 83 1 150 -18 90 -45 160 -97 255 -37 69 -39 76 -39 163 0 111 3
113 114 77 45 -14 104 -30 131 -34 l50 -8 3 -224 c2 -181 0 -227 -12 -240 -23
-26 -81 -151 -106 -226 -50 -148 -20 -301 93 -488 38 -63 56 -61 99 11 90 152
127 285 108 390 -17 96 -99 298 -130 317 -13 8 -14 452 0 460 5 3 38 11 72 16
35 5 93 21 131 35 37 14 74 23 82 20 12 -4 15 -26 15 -99 0 -93 0 -95 -49
-188 -101 -194 -118 -317 -62 -469 35 -95 97 -207 123 -224 23 -14 34 1 99
129 33 67 55 127 66 181 14 74 14 88 0 158 -16 77 -57 180 -109 269 -27 45
-28 54 -28 172 l0 123 35 22 c65 40 154 150 200 245 55 114 68 172 67 299 0
190 -61 335 -196 472 -88 88 -165 134 -291 174 -92 28 -228 35 -320 14z m305
-71 c202 -56 371 -226 425 -429 22 -81 22 -255 0 -331 -61 -210 -234 -380
-437 -430 -89 -21 -248 -21 -323 1 -207 61 -371 225 -430 430 -23 79 -24 239
-1 325 85 330 431 526 766 434z m-473 -1538 c12 -22 34 -74 48 -115 43 -129
32 -248 -37 -383 -40 -80 -61 -76 -106 15 -69 142 -74 266 -16 408 55 137 70
147 111 75z m702 -19 c87 -191 87 -309 2 -476 -40 -78 -61 -78 -100 -3 -73
146 -81 284 -22 423 58 141 77 150 120 56z m-355 -304 c88 -174 89 -316 4
-490 -29 -59 -62 -65 -90 -16 -70 120 -89 274 -49 393 35 102 68 161 91 161
13 0 27 -15 44 -48z"/>
<path d="M1498 2643 c-24 -28 -50 -83 -64 -138 -16 -59 -7 -101 38 -187 45
-84 66 -81 114 18 28 57 38 87 37 122 -2 70 -65 202 -97 202 -7 0 -20 -8 -28
-17z m53 -103 c11 -39 10 -129 -1 -151 -6 -10 -17 -19 -25 -19 -8 0 -19 9 -25
19 -14 28 -13 154 2 169 19 19 41 10 49 -18z"/>
<path d="M1805 2421 c-74 -18 -129 -67 -176 -157 -20 -37 -21 -44 -9 -59 12
-15 26 -17 88 -12 101 8 153 35 207 109 51 69 61 94 45 113 -13 16 -100 19
-155 6z m63 -76 c4 -27 -71 -85 -110 -85 -32 0 -47 23 -31 49 13 22 94 62 118
59 11 -2 21 -12 23 -23z"/>
<path d="M1091 2401 c-19 -35 71 -156 144 -193 54 -28 182 -32 199 -5 27 43
-84 177 -167 202 -74 22 -164 20 -176 -4z m216 -84 c25 -23 34 -39 30 -50 -13
-33 -89 -14 -131 32 -51 56 41 73 101 18z"/>
<path d="M1506 2174 c-9 -8 -16 -19 -16 -24 0 -8 28 -40 35 -40 9 0 35 33 35
45 0 25 -36 37 -54 19z"/>
<path d="M1633 2119 c-19 -20 -16 -42 13 -85 71 -106 137 -144 250 -144 49 0
65 4 73 17 21 38 -72 162 -147 195 -55 25 -172 35 -189 17z m170 -70 c12 -6
34 -23 50 -37 48 -46 29 -71 -40 -53 -46 13 -98 63 -90 85 7 19 49 21 80 5z"/>
<path d="M1279 2106 c-53 -14 -92 -43 -137 -103 -48 -63 -58 -89 -41 -109 19
-24 149 -15 205 14 49 25 97 78 127 139 21 44 22 45 3 59 -24 17 -94 17 -157
0z m59 -81 c4 -30 -39 -66 -87 -72 -52 -7 -65 16 -30 54 44 47 111 57 117 18z"/>
<path d="M1507 2032 c-30 -33 -67 -131 -67 -177 0 -53 31 -139 64 -180 33 -40
51 -29 96 60 47 94 46 146 -5 243 -39 76 -58 87 -88 54z m53 -112 c17 -33 8
-131 -13 -144 -26 -16 -47 16 -47 70 0 80 34 122 60 74z"/>
</g>
</svg>
